<svg xmlns="http://www.w3.org/2000/svg" xmlns:xlink="http://www.w3.org/1999/xlink" width="76.635" height="82.116" viewBox="0 0 76.635 82.116">
  <defs>
    <linearGradient id="linear-gradient" x1="0.862" y1="0.019" x2="0.129" y2="0.988" gradientUnits="objectBoundingBox">
      <stop offset="0.157" stop-color="#686f9f"/>
      <stop offset="0.288" stop-color="#6a67a3"/>
      <stop offset="0.491" stop-color="#7051ae"/>
      <stop offset="0.742" stop-color="#792cc1"/>
      <stop offset="1" stop-color="#8400d7"/>
    </linearGradient>
    <linearGradient id="linear-gradient-2" x1="0.293" y1="0.819" x2="0.618" y2="0.358" gradientUnits="objectBoundingBox">
      <stop offset="0.047" stop-color="#846fde"/>
      <stop offset="0.229" stop-color="#8c60d0"/>
      <stop offset="0.581" stop-color="#a137ab"/>
      <stop offset="0.995" stop-color="#bd0079"/>
    </linearGradient>
    <linearGradient id="linear-gradient-3" x1="0.424" y1="-0.066" x2="0.763" y2="1.317" gradientUnits="objectBoundingBox">
      <stop offset="0" stop-color="#ff0059"/>
      <stop offset="1" stop-color="#e27a2c"/>
    </linearGradient>
    <linearGradient id="linear-gradient-4" x1="0.387" y1="-0.198" x2="0.707" y2="1.423" gradientUnits="objectBoundingBox">
      <stop offset="0" stop-color="#db0093"/>
      <stop offset="0.005" stop-color="#da0093" stop-opacity="0"/>
      <stop offset="1" stop-color="#554b9b"/>
    </linearGradient>
  </defs>
  <g id="customer-5" transform="translate(-336.204 -312.624)">
    <path id="Path_34" data-name="Path 34" d="M389.68,349.05c.05.37.09.75.11,1.13,0,.08.02.15.02.23a1.639,1.639,0,0,0,.02.22,1.79,1.79,0,0,0,.02.23c0,.08.01.15.01.23s.01.15.01.23.01.15.01.23.01.15.01.23.01.15.01.23.01.15.01.23a1.769,1.769,0,0,0,.01.23,1.769,1.769,0,0,0,.01.23v.6a1.086,1.086,0,0,0,.01.18,1.274,1.274,0,0,0,.01.19,1.274,1.274,0,0,0,.01.19,1.086,1.086,0,0,0,.01.18,1.274,1.274,0,0,0,.01.19,1.086,1.086,0,0,0,.01.18,1.274,1.274,0,0,0,.01.19,1.274,1.274,0,0,0,.01.19,1.274,1.274,0,0,0,.01.19,1.274,1.274,0,0,0,.01.19,1.274,1.274,0,0,0,.01.19,1.086,1.086,0,0,0,.01.18,1.274,1.274,0,0,0,.01.19,1.086,1.086,0,0,0,.01.18,1.274,1.274,0,0,0,.01.19,1.274,1.274,0,0,0,.01.19,1.086,1.086,0,0,0,.01.18,1.274,1.274,0,0,0,.01.19,1.274,1.274,0,0,0,.01.19,1.086,1.086,0,0,0,.01.18,1.274,1.274,0,0,0,.01.19,1.274,1.274,0,0,0,.01.19,1.274,1.274,0,0,0,.01.19,1.086,1.086,0,0,0,.01.18,1.274,1.274,0,0,0,.01.19,1.274,1.274,0,0,0,.01.19v-5.5a1.339,1.339,0,0,0-.01-.2,1.339,1.339,0,0,0-.01-.2c0-.07-.01-.13-.01-.19s-.01-.13-.01-.2-.01-.13-.01-.19-.01-.13-.01-.19-.01-.13-.01-.19-.01-.13-.01-.19a.075.075,0,0,0-.01-.05c-.01-.06-.01-.13-.02-.19s-.01-.13-.02-.19a1.107,1.107,0,0,1-.02-.19c-.01-.06-.02-.13-.03-.19s-.02-.12-.03-.19-.02-.12-.03-.19-.02-.12-.03-.19-.02-.12-.03-.19-.02-.11-.03-.17a.06.06,0,0,0-.01-.04,1.162,1.162,0,0,0-.04-.18c-.01-.06-.03-.12-.04-.18s-.03-.12-.04-.18-.02-.09-.03-.14c.01.07.01.14.02.21A.2.2,0,0,0,389.68,349.05Z" fill="none"/>
    <path id="Path_35" data-name="Path 35" d="M381.15,377.81V355.48a8.163,8.163,0,0,0-14.19-5.15,8.3,8.3,0,0,0-2.07,5.24v13.92h0c-.02-.01-.03-.01-.05-.02-.05-.02-.1-.05-.15-.07s-.1-.05-.15-.07-.09-.05-.13-.07a.915.915,0,0,0-.14-.07c-.05-.03-.1-.05-.14-.08s-.1-.06-.14-.08-.1-.06-.14-.08-.09-.06-.14-.09-.09-.06-.14-.09-.09-.06-.14-.09-.09-.06-.14-.09c-.03-.02-.07-.05-.1-.07s-.09-.06-.13-.09a1.131,1.131,0,0,1-.13-.1,1.131,1.131,0,0,1-.13-.1l-.13-.1-.13-.1-.13-.1-.13-.1a1.469,1.469,0,0,0-.13-.1c-.03-.02-.05-.05-.08-.07h0a1.065,1.065,0,0,0-.11-.09l-.03-.03a.874.874,0,0,0-.1-.08c-.01-.01-.02-.03-.04-.04a.551.551,0,0,0-.09-.07l-.05-.05a.554.554,0,0,0-.08-.06l-.06-.06a.423.423,0,0,0-.07-.05.463.463,0,0,0-.07-.07c-.02-.02-.04-.03-.06-.05a.27.27,0,0,1-.07-.08c-.01-.01-.03-.02-.05-.04a.6.6,0,0,0-.08-.08.138.138,0,0,0-.04-.03l-.09-.09c-.01-.01-.02-.01-.03-.02l-.06-.06c-.04-.04-.07-.08-.11-.12a1.2,1.2,0,0,1-.11-.12c-.04-.04-.07-.08-.11-.12s-.07-.08-.11-.12-.07-.08-.11-.12-.07-.08-.11-.12a1.489,1.489,0,0,1-.11-.13,1.489,1.489,0,0,1-.11-.13c-.04-.04-.07-.09-.11-.13-.02-.03-.05-.06-.07-.09a1.061,1.061,0,0,0-.09-.11c-.03-.04-.07-.09-.1-.13s-.07-.09-.1-.13-.05-.07-.07-.1a.138.138,0,0,1-.03-.04,1.473,1.473,0,0,0-.1-.13,571396490400.476,571396490400.476,0,0,1-.2-.28,1.215,1.215,0,0,0-.1-.14c-.03-.05-.06-.09-.09-.14s-.06-.09-.09-.14c-.02-.03-.04-.07-.06-.1a.912.912,0,0,1-.08-.13c-.03-.05-.06-.09-.09-.14s-.06-.1-.09-.14-.06-.1-.09-.14-.06-.1-.09-.14-.06-.1-.08-.14-.05-.1-.08-.15-.05-.1-.08-.15-.05-.1-.08-.15-.05-.1-.08-.15l-.06-.12c-.02-.04-.05-.09-.07-.13s-.05-.1-.07-.15-.05-.1-.07-.15-.05-.1-.07-.15-.05-.1-.07-.15-.05-.1-.07-.15-.05-.1-.07-.15a1773165735051.675,1773165735051.675,0,0,0-.14-.3,1.112,1.112,0,0,0-.07-.16c-.02-.05-.04-.1-.07-.16-.02-.04-.03-.08-.05-.12l-.06-.15c-.02-.05-.04-.11-.06-.16s-.04-.11-.06-.16-.04-.11-.06-.16-.04-.11-.06-.16-.04-.11-.06-.16-.04-.11-.06-.16a.981.981,0,0,1-.05-.16c-.02-.05-.03-.11-.05-.16s-.03-.11-.05-.16-.03-.11-.05-.16a.646.646,0,0,0-.04-.13c-.01-.05-.03-.11-.04-.16a1.1,1.1,0,0,0-.05-.17c-.01-.06-.03-.11-.04-.17s-.03-.11-.04-.17-.03-.11-.04-.17-.03-.11-.04-.17-.03-.11-.04-.17a810690788292.207,810690788292.207,0,0,1-.08-.34,810690788292.093,810690788292.093,0,0,1-.08-.34c-.01-.05-.02-.09-.03-.14s-.02-.11-.03-.16-.02-.11-.03-.17-.02-.11-.03-.17-.02-.11-.03-.17-.02-.11-.03-.17-.02-.11-.03-.17a.984.984,0,0,1-.02-.17c-.01-.06-.01-.11-.02-.17s-.01-.11-.02-.17-.01-.11-.02-.17-.01-.11-.02-.17a.708.708,0,0,1-.01-.14c0-.05-.01-.11-.01-.16s-.01-.12-.01-.17-.01-.11-.01-.17-.01-.12-.01-.17-.01-.12-.01-.17-.01-.12-.01-.17-.01-.12-.01-.17a.914.914,0,0,0-.01-.17.914.914,0,0,0-.01-.17.914.914,0,0,0-.01-.17v-.98a.914.914,0,0,1,.01-.17.914.914,0,0,1,.01-.17c0-.06.01-.12.01-.17s.01-.12.01-.17.01-.12.01-.17.01-.12.01-.17.01-.12.01-.17.01-.08.01-.13.01-.11.02-.17.01-.12.02-.17.01-.11.02-.17.01-.11.02-.17.01-.12.02-.17a277558059633.888,277558059633.888,0,0,0,.04-.34c.01-.06.02-.11.03-.17v-.03c-.01,0-.01-.01-.02-.01-.01.04-.02.07-.03.11-.02.07-.03.14-.05.21s-.03.14-.05.21a.936.936,0,0,1-.04.16c-.01.07-.03.13-.04.2s-.03.14-.04.21-.03.14-.04.21-.03.14-.04.21a3897170894181.441,3897170894181.441,0,0,0-.08.42l-.03.21-.03.21-.03.21-.03.21-.03.21c-.01.06-.01.12-.02.17a1.354,1.354,0,0,0-.02.2,1.491,1.491,0,0,0-.02.21c-.01.07-.01.14-.02.21a748906507974.5,748906507974.5,0,0,0-.04.42,748906507974.525,748906507974.525,0,0,0-.04.42c0,.07-.01.14-.01.21s-.01.14-.01.21-.01.14-.01.21a1.475,1.475,0,0,1-.01.21,1.086,1.086,0,0,1-.01.18v1.48c0,.07.01.14.01.21s.01.14.01.22.01.14.01.21.01.14.01.22c0,.06.01.12.01.18a1.339,1.339,0,0,1,.01.2c.01.07.01.14.02.21s.01.14.02.21.01.14.02.21.01.14.02.22a50.287,50.287,0,0,1,.04.43l.03.21.03.21.03.21.03.21a.771.771,0,0,1,.02.15,389717089438.614,389717089438.614,0,0,1,.08.42c.01.07.03.14.04.21s.03.14.04.21.03.14.04.21a974292723540.267,974292723540.267,0,0,0,.08.42c.02.07.03.14.05.21s.03.14.05.21.03.14.05.21a1.809,1.809,0,0,0,.05.19.938.938,0,0,1,.04.16l.06.21.06.21.06.21.06.21.06.21.06.21.06.21c.02.07.05.14.07.21s.05.14.07.2.05.13.07.19c.02.04.03.09.05.13.03.07.05.14.08.2s.05.13.08.2.05.13.08.2.05.13.08.2.05.13.08.2a488404503341.569,488404503341.569,0,0,0,.16.4c.03.07.06.13.09.2s.06.13.09.2.06.12.08.17.04.09.06.13c.03.06.06.13.1.2a1.736,1.736,0,0,0,.1.19c.03.06.07.13.1.19s.07.13.1.19.07.13.1.19.07.13.1.19.07.13.1.19.07.13.1.19a1.861,1.861,0,0,0,.11.19.879.879,0,0,1,.06.1c.04.06.07.12.11.18a1.737,1.737,0,0,1,.11.18c.04.06.08.12.12.19l.12.18.12.18.12.18.12.18.12.18.12.18a.868.868,0,0,1,.07.1.359.359,0,0,1,.07.1c.01.02.03.04.04.06.05.06.09.12.13.17s.09.12.13.17l.14.17.14.17.14.17.14.17.14.17c.05.05.09.11.14.16s.1.11.14.16c.01.02.03.03.04.05l.01.01a1.74,1.74,0,0,1,.12.14l.03.03c.04.04.07.09.11.13l.04.04a1.058,1.058,0,0,1,.1.12c.02.02.04.03.05.05a1.065,1.065,0,0,1,.09.11l.06.06c.03.03.05.06.08.09s.05.04.08.07.05.06.08.09.06.05.09.08.05.06.08.09.07.06.11.1c.02.02.04.05.06.07.04.04.08.07.12.11.02.02.03.04.05.06.04.04.09.08.13.12l.04.04c.05.05.1.09.14.13.01.01.01.01.01.02a1.537,1.537,0,0,0,.13.12c.06.05.12.1.17.15s.12.1.17.15.12.1.17.15l.18.15.18.15c.06.05.12.09.18.14s.12.09.18.14.12.09.18.14.11.08.16.12l.12.09c.06.04.12.09.18.13s.12.09.18.13a2.026,2.026,0,0,1,.18.13l.18.12.18.12.18.12.18.12c.06.04.12.08.19.12a.879.879,0,0,0,.1.06c.06.03.11.07.17.1s.12.07.19.11.13.07.19.1.13.07.19.1.13.07.19.1.13.07.19.1a1.736,1.736,0,0,1,.19.1,1.736,1.736,0,0,1,.19.1l.18.09c.03.01.05.03.08.04.06.03.13.06.19.09a1.537,1.537,0,0,0,.19.08c.07.03.13.06.19.08s.13.05.19.08a.01.01,0,0,1,.01.01c.06.02.12.05.18.07s.13.05.19.08.13.05.19.08a1.461,1.461,0,0,0,.19.07c.03.01.05.02.08.03.06.02.12.04.17.06.07.02.13.04.2.06s.13.04.2.06.13.04.2.06.13.04.2.06.13.04.2.06.13.04.2.06.13.03.2.05.13.03.2.05c.02,0,.03.01.05.01.07.01.13.03.2.04s.13.03.2.04.13.03.2.04.13.03.2.04.13.03.2.04a466349442249.8,466349442249.8,0,0,0,.4.08l.2.03.2.03a.06.06,0,0,1,.04.01,360469980770.433,360469980770.433,0,0,0,.4.04c.07.01.13.01.2.02s.13.01.2.02.13.01.2.02.13.01.2.02.13.01.2.02a1.339,1.339,0,0,0,.2.01,1.339,1.339,0,0,0,.2.01h.05c.06,0,.12.01.19.01h1.2c.07,0,.14-.01.2-.01s.13-.01.2-.01.13-.01.2-.01h.03c.07-.01.13-.01.2-.02s.13-.01.2-.02.13-.01.2-.02.13-.01.2-.02.13-.01.2-.02a323900562409.906,323900562409.906,0,0,0,.4-.04l.2-.03.2-.03.2-.03a.076.076,0,0,0,.04-.01l.18-.03a1.415,1.415,0,0,0,.2-.04,1.415,1.415,0,0,0,.2-.04c.07-.01.13-.03.2-.04s.13-.03.2-.04.13-.03.2-.04.13-.03.2-.04a1.465,1.465,0,0,0,.2-.05,1.465,1.465,0,0,0,.2-.05,1.465,1.465,0,0,0,.2-.05,1.461,1.461,0,0,1,.2-.05c.01,0,.02,0,.02-.01.06-.02.13-.03.19-.05s.13-.04.2-.06.13-.04.2-.06c.03-.01.06-.02.1-.03C381.15,377.92,381.15,377.87,381.15,377.81Z" fill="url(#linear-gradient)"/>
    <path id="Path_36" data-name="Path 36" d="M389.63,348.61c-.01-.07-.02-.15-.03-.22s-.02-.15-.03-.22-.02-.15-.03-.22-.02-.15-.03-.22-.02-.15-.03-.22-.02-.15-.03-.22-.02-.15-.03-.22-.02-.14-.03-.22a2.066,2.066,0,0,0-.04-.22c-.01-.07-.03-.14-.04-.22s-.03-.14-.04-.21a10.828,10.828,0,0,0-.21-1.11,5845756341509.006,5845756341509.006,0,0,1-.12-.63c-.02-.07-.03-.14-.05-.21s-.03-.14-.05-.21-.03-.14-.05-.21-.03-.14-.05-.21-.03-.14-.05-.21a1.6,1.6,0,0,1-.05-.21,4012621566627.932,4012621566627.932,0,0,0-.1-.42l-.06-.21c-.08-.36-.19-.72-.3-1.08-.02-.07-.04-.14-.06-.2s-.04-.13-.06-.2-.04-.14-.06-.2-.04-.13-.06-.2-.04-.13-.06-.2-.04-.13-.06-.2a1394892629942.683,1394892629942.683,0,0,1-.14-.4c-.02-.07-.05-.13-.07-.2s-.05-.13-.07-.2-.05-.13-.07-.2-.05-.13-.07-.19-.05-.13-.07-.19c-.12-.35-.25-.7-.4-1.04-.03-.06-.05-.13-.08-.19s-.05-.13-.08-.19-.05-.13-.08-.19-.05-.13-.08-.19-.05-.13-.08-.19-.05-.13-.08-.19-.05-.13-.08-.19a1.083,1.083,0,0,1-.08-.19,1.083,1.083,0,0,1-.08-.19l-.09-.18c-.03-.06-.06-.12-.09-.19l-.09-.18-.09-.18-.09-.18c-.15-.34-.32-.67-.5-1-.02-.03-.03-.07-.05-.1s-.03-.05-.04-.08l-.09-.18-.09-.18-.09-.18a790107023318.185,790107023318.185,0,0,1-.2-.36c-.03-.06-.07-.12-.1-.18s-.07-.12-.1-.17-.07-.12-.1-.17-.07-.11-.1-.17-.07-.11-.1-.17-.07-.11-.1-.17-.07-.11-.1-.17c-.18-.32-.38-.64-.59-.95-.04-.05-.07-.11-.11-.17s-.07-.11-.11-.17-.07-.11-.11-.17-.07-.11-.11-.16-.07-.11-.11-.16-.07-.11-.11-.16-.07-.11-.11-.16-.07-.11-.11-.16a502963599262.247,502963599262.247,0,0,1-.22-.32c-.04-.05-.08-.11-.12-.16s-.08-.1-.12-.16-.08-.1-.12-.16-.08-.1-.12-.16-.08-.1-.12-.16a9.521,9.521,0,0,0-.69-.88l-.12-.15-.12-.15-.12-.15-.12-.15-.12-.15a509596501916.472,509596501916.472,0,0,1-.26-.3,1.737,1.737,0,0,0-.13-.15,1.737,1.737,0,0,0-.13-.15c-.04-.05-.09-.1-.13-.15s-.09-.1-.13-.15a1.792,1.792,0,0,0-.13-.14c-.04-.05-.09-.09-.13-.14s-.09-.09-.13-.14-.09-.09-.13-.14c-.24-.28-.5-.55-.77-.81h-.01c-.04-.04-.08-.09-.12-.13l-.01-.01c-.04-.04-.07-.08-.11-.12l-.02-.02a1.143,1.143,0,0,0-.11-.11l-.03-.03a.942.942,0,0,0-.1-.1c-.01-.01-.03-.02-.04-.03l-.09-.09c-.02-.01-.03-.03-.05-.04-.03-.03-.05-.06-.08-.09s-.04-.03-.06-.05l-.08-.08a.265.265,0,0,0-.06-.05.463.463,0,0,0-.07-.07c-.02-.02-.05-.04-.07-.06l-.06-.06a.5.5,0,0,1-.08-.07c-.02-.02-.03-.04-.05-.05-.03-.03-.06-.05-.09-.08a.176.176,0,0,1-.04-.05.874.874,0,0,0-.1-.08c-.01-.01-.02-.03-.04-.04-.03-.03-.07-.06-.1-.09l-.03-.03a.524.524,0,0,1-.11-.1c-.01-.01-.01-.02-.02-.02a1.058,1.058,0,0,0-.12-.1c-.01-.01-.01-.01-.01-.02-.04-.04-.09-.07-.13-.11a.01.01,0,0,0-.01-.01,9.407,9.407,0,0,0-.84-.72l-.15-.12-.15-.12-.15-.12-.15-.12-.15-.12-.15-.12-.15-.12-.15-.12-.15-.12a935769983358.09,935769983358.09,0,0,1-.3-.22,1.429,1.429,0,0,0-.15-.11c-.05-.04-.1-.07-.15-.11s-.1-.07-.15-.11-.1-.07-.15-.11-.1-.07-.15-.11a8.764,8.764,0,0,0-.89-.61c-.05-.03-.1-.07-.16-.11s-.1-.07-.16-.11-.1-.07-.16-.1-.1-.07-.16-.1-.11-.07-.16-.1-.11-.07-.16-.1-.11-.07-.16-.1-.11-.07-.16-.1-.11-.07-.16-.1-.11-.07-.16-.1-.11-.07-.16-.1a1969401770466.026,1969401770466.026,0,0,0-.32-.2c-.05-.03-.11-.06-.16-.09s-.11-.06-.16-.09-.11-.06-.16-.09-.11-.06-.16-.09a9.156,9.156,0,0,0-.92-.5c-.06-.03-.11-.06-.17-.09s-.11-.06-.17-.09-.11-.06-.17-.09-.11-.06-.17-.09a683948769293.932,683948769293.932,0,0,1-.51-.24,1.3,1.3,0,0,0-.17-.08c-.06-.03-.11-.05-.17-.08s-.11-.05-.17-.08-.11-.05-.17-.08-.11-.05-.17-.08-.11-.05-.17-.08-.11-.05-.17-.08a1.221,1.221,0,0,0-.17-.07c-.06-.03-.12-.05-.17-.07-.31-.15-.63-.28-.95-.4-.06-.02-.11-.05-.17-.07s-.11-.05-.17-.07-.12-.05-.17-.07-.12-.05-.17-.07-.12-.05-.17-.07a1.334,1.334,0,0,1-.18-.07l-.18-.06-.18-.06-.18-.06-.18-.06-.18-.06-.18-.06-.18-.06-.18-.06-.18-.06-.18-.06-.11-.03c-.15.05-.3.09-.44.14l-.18.06-.18.06-.18.06-.18.06a253494060182.506,253494060182.506,0,0,1-.36.14,1.334,1.334,0,0,0-.18.07c-.06.02-.12.05-.18.07s-.12.05-.18.07-.12.05-.18.07-.12.05-.18.07-.12.05-.18.07-.14.06-.22.09a9.356,9.356,0,0,0-.86.38c-.06.03-.12.05-.18.08s-.12.05-.18.08-.12.05-.18.08-.12.05-.18.08-.12.06-.17.08l-.18.09c-.06.03-.12.06-.17.09s-.12.06-.17.09-.12.06-.17.09-.11.06-.17.09-.12.06-.17.09-.11.06-.17.09q-.435.225-.87.48a.95.95,0,0,0-.17.1,674929012353.53,674929012353.53,0,0,1-.34.2c-.06.03-.11.07-.17.1s-.11.07-.17.1-.11.07-.17.1a4024630238611.812,4024630238611.812,0,0,0-.51.33c-.06.04-.11.07-.17.11s-.11.07-.17.11a1.624,1.624,0,0,1-.17.11,1.624,1.624,0,0,1-.17.11,9.339,9.339,0,0,0-.82.58c-.05.04-.11.08-.16.12s-.11.08-.16.12-.11.08-.16.12-.11.08-.16.12-.11.08-.16.12-.11.08-.16.12a598069222800.409,598069222800.409,0,0,1-.32.26l-.16.13-.16.13-.16.13-.16.13c-.05.04-.1.09-.16.13-.27.21-.52.43-.77.66-.05.05-.11.09-.16.14s-.1.09-.16.14-.1.09-.15.14-.1.09-.15.14-.1.09-.15.14a1.924,1.924,0,0,1-.15.14l-.15.15-.15.15-.15.15-.15.15-.15.15-.15.15-.15.15a8.467,8.467,0,0,0-.71.75h0c-.04.05-.09.09-.13.14,0,.01-.01.01-.01.02a1.6,1.6,0,0,1-.13.13c-.01.01-.01.02-.02.03l-.12.12c-.01.01-.02.03-.03.04a1.139,1.139,0,0,1-.11.11c-.01.02-.03.03-.04.05a.942.942,0,0,1-.1.1c-.02.02-.03.04-.05.06l-.09.09c-.02.02-.04.05-.06.07l-.08.08a.269.269,0,0,1-.07.08l-.07.07a.608.608,0,0,0-.07.1l-.06.06c-.03.04-.05.07-.08.11l-.05.05-.09.12-.04.04a1.131,1.131,0,0,0-.1.13l-.03.03a1.131,1.131,0,0,0-.1.13c0,.01-.01.01-.01.02l-.11.14-.01.01q-.33.39-.63.81c-.04.05-.08.1-.12.16s-.08.1-.12.16-.08.1-.12.16-.08.11-.12.16-.08.11-.12.16a1.521,1.521,0,0,0-.11.16,1160685229221.631,1160685229221.631,0,0,1-.33.48c-.04.05-.07.11-.11.16s-.07.11-.11.16-.07.11-.11.17a1.624,1.624,0,0,0-.11.17c-.04.06-.07.12-.11.17s-.07.12-.11.17a8.778,8.778,0,0,0-.54.86,673735179519.945,673735179519.945,0,0,1-.22.34,1.743,1.743,0,0,1-.11.18c-.03.06-.07.12-.1.18s-.07.12-.1.18-.07.12-.1.18-.07.12-.1.18-.07.12-.1.18-.07.12-.1.18a790107023321.9,790107023321.9,0,0,0-.2.36l-.09.18-.09.18c-.16.29-.31.59-.45.89l-.09.18-.09.18-.09.18-.09.18a2074662193544.065,2074662193544.065,0,0,0-.24.54c-.03.06-.05.12-.08.19s-.05.12-.08.19-.05.12-.08.19-.05.12-.08.19-.05.12-.08.19a1.068,1.068,0,0,0-.07.19,1.461,1.461,0,0,0-.07.19c-.13.3-.25.61-.35.92-.02.06-.05.13-.07.19s-.05.12-.07.19-.05.13-.07.19-.05.13-.07.19a1.457,1.457,0,0,1-.07.19c-.02.06-.04.13-.06.19s-.04.13-.06.19-.04.13-.06.19a.235.235,0,0,0-.02.08.358.358,0,0,1-.04.11c-.02.06-.04.13-.06.19s-.04.13-.06.19-.04.13-.06.19-.04.13-.06.19c-.05.14-.08.28-.12.42-.07.23-.14.47-.19.7a1231845402525.133,1231845402525.133,0,0,1-.1.38c-.02.06-.03.13-.05.19s-.03.13-.05.19-.03.13-.05.19-.03.13-.05.19a1.289,1.289,0,0,0-.04.19,1.419,1.419,0,0,0-.04.2,1.289,1.289,0,0,0-.04.19,1.419,1.419,0,0,0-.04.2,310994508651.125,310994508651.125,0,0,1-.08.4c-.02.06-.02.13-.04.2s-.02.13-.04.2c-.07.31-.13.63-.17.94-.01.07-.02.13-.03.2s-.02.13-.03.2-.02.13-.03.2-.02.13-.03.2-.02.13-.03.2-.02.13-.03.2-.02.13-.03.2-.02.13-.03.2a1.354,1.354,0,0,0-.02.2c-.01.07-.01.13-.02.2s-.01.13-.02.2-.01.13-.02.2-.01.13-.02.2-.01.13-.02.2c-.04.31-.07.63-.08.95a1.358,1.358,0,0,1-.02.2c0,.07-.01.13-.01.2s-.01.13-.01.2-.01.13-.01.2-.01.13-.01.2-.01.13-.01.2-.01.13-.01.2-.01.13-.01.2a1.339,1.339,0,0,1-.01.2,1.339,1.339,0,0,1-.01.2v1c-.01.31-.01.63.01.94v.4a1.339,1.339,0,0,0,.01.2,1.339,1.339,0,0,0,.01.2,1.339,1.339,0,0,0,.01.2,1.339,1.339,0,0,0,.01.2c0,.07.01.13.01.2s.01.13.01.2.01.13.01.2.01.13.01.2.01.13.01.2a765321158803.306,765321158803.306,0,0,1,.06.6q.03.465.09.93c.01.07.01.13.02.2s.01.13.02.19.01.13.02.19.01.13.02.19.01.13.02.19.02.13.03.19.02.13.03.19.02.13.03.19.02.13.03.19.02.13.03.19.02.13.03.19.02.13.03.19.02.13.03.19.02.13.03.19a1.285,1.285,0,0,0,.04.19,6.977,6.977,0,0,0,.18.91,1.285,1.285,0,0,0,.04.19,713462762935.383,713462762935.383,0,0,0,.08.38c.01.06.03.13.04.19s.03.13.04.19.03.13.04.19.03.13.04.19a923884051916.44,923884051916.44,0,0,1,.15.57,1.335,1.335,0,0,0,.05.19c.02.06.03.13.05.19a1.809,1.809,0,0,0,.05.19,335957837030.036,335957837030.036,0,0,0,.1.38,1.054,1.054,0,0,1,.05.19c.03.14.08.27.12.4.03.1.05.2.09.3.02.06.03.12.06.19l.06.18.06.18c.02.06.04.12.06.19l.06.18.06.18.06.18.06.18.06.18.06.18a977879312772.978,977879312772.978,0,0,0,.14.36c.02.06.05.12.07.18s.05.12.07.18.05.12.07.18.05.12.07.18c.01.04.04.08.05.13.07.18.14.37.22.55a733409484544.951,733409484544.951,0,0,0,.21.54c.02.06.05.11.07.17v.01c.03.06.05.12.08.18s.05.12.08.18.05.12.08.17.05.12.08.17.05.12.08.17.05.12.08.17.06.12.08.17a2018505950175.235,2018505950175.235,0,0,1,.16.34c.03.06.06.11.09.17s.06.11.09.17c.13.28.27.55.42.82.03.06.06.11.09.17s.06.11.09.17.06.11.09.17.06.11.09.17.06.11.09.17.06.11.09.17a1.507,1.507,0,0,0,.1.17,1.4,1.4,0,0,0,.1.16.864.864,0,0,0,.1.16c.03.05.07.11.1.16s.07.11.1.16.07.11.1.16.07.11.1.16.07.11.1.16.07.11.1.16c.15.26.32.52.5.77.04.05.07.11.11.16s.07.11.11.16.07.11.11.16.07.1.11.16.07.1.11.15.07.1.11.15.07.1.11.15.07.1.11.15a838572044461.333,838572044461.333,0,0,1,.22.3l.12.15.12.15.12.15.12.15c.01.01.01.02.02.03.14.19.28.37.44.55l.12.15.12.15.12.15a1.745,1.745,0,0,0,.12.14,1.745,1.745,0,0,0,.12.14,1.745,1.745,0,0,0,.12.14c.04.05.08.09.12.14a1.664,1.664,0,0,0,.13.14,1.664,1.664,0,0,0,.13.14c.04.05.09.09.13.14s.09.09.13.14.09.09.13.14.09.09.13.14.09.09.13.14a8.087,8.087,0,0,0,.65.66l.01.01.12.12c.01,0,.01.01.02.01a1.143,1.143,0,0,0,.11.11c.01.01.02.01.03.02a.942.942,0,0,1,.1.1l.03.03.09.09c.01.01.03.02.04.04a.6.6,0,0,0,.08.08c.02.02.04.03.05.04a.27.27,0,0,1,.07.08c.02.02.04.03.06.05a.463.463,0,0,0,.07.07c.02.02.05.04.07.06l.06.06a.269.269,0,0,1,.08.07l.05.05c.03.03.06.05.09.08l.04.04c.03.03.07.06.1.09l.03.03a1.061,1.061,0,0,1,.11.09l.02.02a1.058,1.058,0,0,0,.12.1l.01.01c.04.04.09.07.13.11h0a8.058,8.058,0,0,0,.72.59l.15.12.15.12.15.12.15.12a519872213002.722,519872213002.722,0,0,1,.3.22,1.429,1.429,0,0,0,.15.11.905.905,0,0,0,.16.11c.05.04.1.07.15.11s.1.07.16.11.11.07.16.11.11.07.16.11a9.032,9.032,0,0,0,.76.5c.05.03.11.07.16.1s.11.07.16.1.11.07.16.1.11.07.16.1.11.07.16.1.11.07.16.1.11.07.17.1a1687322530971.234,1687322530971.234,0,0,1,.34.2c.06.03.11.06.17.09s.11.06.17.09.11.06.17.09c.26.15.52.29.79.42.06.03.11.06.17.09s.11.06.17.09.12.06.17.09.12.06.17.08a1.415,1.415,0,0,0,.18.08,1.415,1.415,0,0,0,.18.08c.06.03.12.05.18.08s.12.05.18.08c.01.01.02.01.04.02.05.02.1.04.14.06.06.03.12.05.18.08s.12.05.18.08.12.05.18.08q.4.18.81.33c.06.02.12.05.18.07s.12.05.18.07.12.05.19.07.12.05.19.07.12.05.19.07.12.04.19.06.13.04.19.06.13.04.19.06.13.04.19.06.13.04.19.06.13.04.19.06a6.045,6.045,0,0,0,.83.24,1.331,1.331,0,0,0,.19.05,1542309107479.586,1542309107479.586,0,0,0,.4.1c.07.02.13.03.2.05s.13.03.2.05.13.03.2.05.13.03.2.05a971561337943.743,971561337943.743,0,0,1,.6.12,1.419,1.419,0,0,0,.2.04,8.276,8.276,0,0,0,.84.16c.07.01.14.03.2.04a1.619,1.619,0,0,0,.2.03l.21.03.21.03.21.03.21.03.21.03.21.03a1.491,1.491,0,0,0,.21.02c.07.01.14.01.21.02s.14.01.21.02c.28.04.56.06.84.08a662267640108.578,662267640108.578,0,0,1,.42.04c.07,0,.14.01.21.01s.14.01.22.01.14.01.22.01.15.01.22.01.15.01.22.01a1.619,1.619,0,0,1,.22.01h.66a7.84,7.84,0,0,0,.84-.01h.22a19535440368217.63,19535440368217.63,0,0,1,.44-.02,1.619,1.619,0,0,0,.22-.01c.08,0,.15-.01.23-.01s.15-.01.23-.01.15-.01.23-.01.15-.01.23-.01a1148001064659.876,1148001064659.876,0,0,1,.46-.04,1.79,1.79,0,0,0,.23-.02,8.952,8.952,0,0,0,6.13-2.92,8.772,8.772,0,0,0,2.17-6.29v-.95c-.03.01-.06.02-.1.03-.07.02-.13.04-.2.06s-.13.04-.2.06-.13.03-.19.05c-.01,0-.02,0-.02.01a1.465,1.465,0,0,0-.2.05,1.465,1.465,0,0,0-.2.05,1.465,1.465,0,0,0-.2.05,1.465,1.465,0,0,0-.2.05c-.07.01-.13.03-.2.04s-.13.03-.2.04-.13.03-.2.04a2186013010505.007,2186013010505.007,0,0,0-.6.12l-.18.03a.076.076,0,0,0-.04.01l-.2.03-.2.03-.2.03a1.354,1.354,0,0,1-.2.02c-.07.01-.13.01-.2.02s-.13.01-.2.02-.13.01-.2.02-.13.01-.2.02-.13.01-.2.02-.13.01-.2.02h-.03c-.07,0-.13.01-.2.01s-.13.01-.2.01a1.339,1.339,0,0,0-.2.01h-1.2c-.06,0-.12-.01-.19-.01h-.05a1.339,1.339,0,0,0-.2-.01,1.339,1.339,0,0,0-.2-.01c-.07-.01-.13-.01-.2-.02s-.13-.01-.2-.02-.13-.01-.2-.02-.13-.01-.2-.02a713270387406.616,713270387406.616,0,0,1-.6-.06.06.06,0,0,1-.04-.01l-.2-.03-.2-.03a315100974518.412,315100974518.412,0,0,1-.4-.08c-.07-.01-.13-.03-.2-.04s-.13-.03-.2-.04-.13-.03-.2-.04-.13-.03-.2-.04-.13-.03-.2-.04c-.02,0-.03-.01-.05-.01-.07-.02-.13-.03-.2-.05a1.461,1.461,0,0,0-.2-.05c-.07-.02-.13-.04-.2-.06s-.13-.04-.2-.06-.13-.04-.2-.06-.13-.04-.2-.06-.13-.04-.2-.06-.13-.04-.2-.06-.11-.04-.17-.06c-.03-.01-.05-.02-.08-.03a1.461,1.461,0,0,0-.19-.07c-.06-.03-.13-.05-.19-.08s-.13-.05-.19-.08a1.338,1.338,0,0,0-.18-.07.01.01,0,0,1-.01-.01c-.06-.03-.13-.05-.19-.08a430191967408.183,430191967408.183,0,0,0-.38-.16c-.06-.03-.13-.06-.19-.09-.03-.01-.05-.03-.08-.04l-.18-.09a1.736,1.736,0,0,1-.19-.1c-.06-.03-.13-.07-.19-.1s-.13-.07-.19-.1-.13-.07-.19-.1-.13-.07-.19-.1-.13-.07-.19-.1-.12-.07-.19-.11-.11-.07-.17-.1a.879.879,0,0,0-.1-.06c-.06-.04-.12-.08-.19-.12l-.18-.12-.18-.12-.18-.12-.18-.12a2.026,2.026,0,0,1-.18-.13c-.06-.04-.12-.09-.18-.13s-.12-.09-.18-.13l-.12-.09c-.05-.04-.11-.08-.16-.12s-.12-.09-.18-.14-.12-.09-.18-.14a2.2,2.2,0,0,0-.18-.14l-.18-.15-.18-.15c-.06-.05-.12-.1-.17-.15s-.12-.1-.17-.15-.11-.1-.17-.15a1.537,1.537,0,0,0-.13-.12c-.01-.01-.01-.01-.01-.02-.05-.05-.1-.09-.14-.13l-.04-.04c-.04-.04-.09-.08-.13-.12-.02-.02-.03-.04-.05-.06-.04-.04-.08-.07-.12-.11-.02-.02-.04-.05-.06-.07s-.07-.06-.11-.1-.05-.06-.08-.09-.06-.05-.09-.08-.05-.06-.08-.09-.05-.04-.08-.07-.05-.06-.08-.09l-.06-.06a1.065,1.065,0,0,1-.09-.11c-.02-.02-.04-.03-.05-.05a1.058,1.058,0,0,1-.1-.12l-.04-.04c-.04-.04-.07-.09-.11-.13l-.03-.03c-.04-.05-.08-.09-.12-.14l-.01-.01c-.01-.02-.03-.03-.04-.05-.04-.06-.1-.11-.14-.16a1.071,1.071,0,0,0-.14-.16l-.14-.17-.14-.17-.14-.17-.14-.17c-.05-.06-.09-.12-.14-.17s-.09-.12-.13-.17-.09-.12-.13-.17c-.01-.02-.03-.04-.04-.06s-.05-.07-.07-.1a.868.868,0,0,1-.07-.1l-.12-.18-.12-.18-.12-.18-.12-.18-.12-.18-.12-.18c-.04-.06-.08-.12-.12-.19s-.07-.12-.11-.18-.07-.12-.11-.18a.879.879,0,0,1-.06-.1,1.861,1.861,0,0,0-.11-.19c-.03-.06-.07-.13-.1-.19s-.07-.13-.1-.19-.07-.13-.1-.19-.07-.13-.1-.19-.07-.13-.1-.19a803955376103.519,803955376103.519,0,0,1-.2-.38c-.03-.06-.06-.13-.1-.2-.02-.04-.04-.09-.06-.13-.02-.06-.06-.12-.08-.17-.03-.07-.06-.13-.09-.2s-.06-.13-.09-.2a488404503341.686,488404503341.686,0,0,1-.16-.4c-.03-.07-.05-.13-.08-.2s-.05-.13-.08-.2-.05-.13-.08-.2-.05-.13-.08-.2-.05-.14-.08-.2c-.02-.04-.03-.09-.05-.13-.02-.06-.05-.13-.07-.19s-.05-.14-.07-.2a1.72,1.72,0,0,0-.07-.21l-.06-.21-.06-.21-.06-.21-.06-.21-.06-.21-.06-.21-.06-.21c-.02-.05-.02-.11-.04-.16a1.809,1.809,0,0,0-.05-.19,1504733087471.511,1504733087471.511,0,0,1-.15-.63c-.01-.07-.03-.14-.04-.21s-.03-.14-.04-.21-.03-.14-.04-.21-.03-.14-.04-.21a974292723540.606,974292723540.606,0,0,1-.08-.42,1.55,1.55,0,0,0-.04-.21.771.771,0,0,1-.02-.15l-.03-.21-.03-.21-.03-.21-.03-.21a1.5,1.5,0,0,1-.02-.22c-.01-.07-.01-.14-.02-.21s-.01-.14-.02-.22-.01-.14-.02-.21-.01-.14-.02-.21-.01-.14-.02-.21a1.339,1.339,0,0,1-.01-.2c0-.06-.01-.12-.01-.18s-.01-.14-.01-.22-.01-.14-.01-.21-.01-.14-.01-.22a1.475,1.475,0,0,0-.01-.21v-1.28a1.334,1.334,0,0,0,0-.2,1.086,1.086,0,0,1,.01-.18,1.476,1.476,0,0,0,.01-.21,3706806809350.247,3706806809350.247,0,0,0,.02-.42,1.476,1.476,0,0,0,.01-.21c.01-.07.01-.14.02-.21s.01-.14.02-.21.01-.14.02-.21.01-.14.02-.21a748906507974.484,748906507974.484,0,0,1,.04-.42,1.354,1.354,0,0,0,.02-.2c.01-.06.01-.12.02-.17l.03-.21.03-.21.03-.21.03-.21.03-.21a1.55,1.55,0,0,1,.04-.21c.01-.07.03-.14.04-.21s.03-.14.04-.21.03-.14.04-.21.03-.14.04-.21.03-.13.04-.2a.936.936,0,0,1,.04-.16c.02-.07.03-.14.05-.21s.03-.14.05-.21c.01-.04.02-.07.03-.11a.292.292,0,0,0,.02-.09c.01-.04.02-.08.03-.13,0-.03.01-.06.01-.09l.03-.15c.01-.04.01-.09.02-.13.01-.06.02-.11.03-.17a463251879011.794,463251879011.794,0,0,1,.08-.34c.01-.06.03-.11.04-.17s.03-.11.04-.17.03-.11.04-.17.03-.11.04-.17.03-.11.04-.17.03-.11.04-.17.03-.1.04-.16c.01-.04.02-.07.03-.11.02-.06.03-.11.05-.17s.03-.11.05-.17.03-.11.05-.17a250890062971.216,250890062971.216,0,0,1,.1-.34c.02-.06.04-.11.06-.17s.04-.11.06-.16.04-.11.06-.16.04-.11.06-.16a1.21,1.21,0,0,0,.05-.14.359.359,0,0,0,.04-.11,1220212300320.112,1220212300320.112,0,0,1,.14-.32c.02-.05.05-.11.07-.16s.05-.11.07-.16.05-.11.07-.16.05-.11.07-.16.05-.11.07-.16.05-.11.07-.16.05-.1.07-.16c.01-.03.03-.05.04-.08.03-.05.05-.1.08-.15s.05-.1.08-.15a.8.8,0,0,0,.08-.16,1.092,1.092,0,0,0,.08-.15l.09-.15.09-.15.09-.15.09-.15.09-.15a.35.35,0,0,0,.05-.08c.03-.04.05-.09.08-.13a1.3,1.3,0,0,1,.1-.15c.03-.05.07-.1.1-.15s.07-.1.1-.15.07-.1.1-.15a630506472211.736,630506472211.736,0,0,1,.2-.28c.03-.05.07-.09.1-.14s.07-.09.1-.14.07-.09.1-.14c.01-.01.02-.03.03-.04l.01-.01.09-.12c.01-.01.02-.02.02-.03a.764.764,0,0,0,.08-.11l.03-.03c.03-.03.05-.07.08-.1.01-.02.03-.03.04-.04a.551.551,0,0,0,.07-.09l.05-.05c.02-.03.04-.05.06-.08l.06-.06c.02-.02.04-.05.06-.07l.07-.07c.02-.02.04-.05.06-.07l.08-.08c.02-.02.03-.04.05-.06l.09-.09a.175.175,0,0,1,.04-.05.942.942,0,0,1,.1-.1c.01-.01.02-.03.03-.04l.11-.11.01-.01a.942.942,0,0,1,.1-.1l.13-.13.13-.13.13-.13.13-.13a1.592,1.592,0,0,0,.13-.13.9.9,0,0,1,.1-.09c.01-.01.03-.02.04-.04a1.74,1.74,0,0,1,.14-.12,1.74,1.74,0,0,1,.14-.12,1.058,1.058,0,0,1,.12-.1.646.646,0,0,0,.09-.08,1.34,1.34,0,0,1,.14-.11,1.34,1.34,0,0,1,.14-.11l.14-.11.14-.11.14-.11.14-.11a1.72,1.72,0,0,0,.14-.11c.05-.04.1-.07.14-.1.02-.02.05-.03.07-.05a1.466,1.466,0,0,0,.13-.09.71.71,0,0,0,.14-.1l.15-.09.15-.09.15-.09.15-.09.15-.09.15-.09c.05-.03.09-.05.14-.08a.209.209,0,0,0,.06-.04,1.092,1.092,0,0,0,.15-.08,375180447145.649,375180447145.649,0,0,1,.3-.16,1.092,1.092,0,0,0,.15-.08c.05-.02.1-.05.15-.07s.1-.05.15-.07.1-.05.15-.07.1-.05.15-.07l.06-.03c.05-.02.09-.04.14-.06l.15-.06.15-.06c.05-.02.1-.04.16-.06s.1-.04.16-.06.1-.04.16-.06.1-.04.16-.06.1-.04.16-.06.1-.03.16-.05c.01,0,.02-.01.04-.01a307062287153.086,307062287153.086,0,0,0,.32-.1c.05-.01.11-.03.16-.04s.11-.03.16-.04.11-.03.16-.04.11-.03.16-.04.11-.03.16-.04a.936.936,0,0,0,.16-.04,1.243,1.243,0,0,0,.16-.04.037.037,0,0,0,.03-.01l.16-.03.16-.03.16-.03.16-.03.16-.03a.874.874,0,0,1,.16-.02c.05-.01.11-.01.16-.02s.11-.01.16-.02.11-.01.16-.02h.04a.773.773,0,0,0,.15-.02c.05,0,.11-.01.16-.01s.11-.01.16-.01.11-.01.16-.01.11-.01.16-.01.11-.01.16-.01a7535899550087.5,7535899550087.5,0,0,1,.32-.02.86.86,0,0,0,.16-.01h.82a.86.86,0,0,1,.16.01c.05,0,.11.01.16.01s.11.01.16.01.11.01.16.01.11.01.16.01.11.01.16.01h.03a.756.756,0,0,0,.15.01c.05.01.11.01.16.02s.11.01.16.02.11.01.16.02.11.01.16.02a1922844756526.22,1922844756526.22,0,0,1,.32.04l.16.03.16.03.16.03.16.03h.02l.15.03a1540856208605.024,1540856208605.024,0,0,1,.48.12c.05.01.11.03.16.04s.11.03.16.04.11.03.16.04.11.03.16.04.11.03.16.04.11.03.16.04.11.03.16.04.09.03.14.04c.01,0,.01,0,.02.01.05.02.1.03.16.05s.11.03.16.05.1.03.16.05a.749.749,0,0,0,.16.05c.05.02.1.04.16.06s.1.04.16.06.1.04.16.06.1.04.16.06.1.04.16.06l.15.06c.05.02.1.04.16.06s.09.04.14.06a.01.01,0,0,1,.01.01,1.008,1.008,0,0,1,.15.07,1.008,1.008,0,0,1,.15.07c.05.02.1.05.15.07s.1.05.15.07.1.05.15.07.1.05.15.07.1.05.15.07.1.05.15.07a1.092,1.092,0,0,1,.15.08,1125541341510.366,1125541341510.366,0,0,1,.3.16c.05.02.09.05.14.07s.1.05.14.08a1.092,1.092,0,0,0,.15.08l.15.09c.05.03.1.06.14.09s.1.06.14.09.1.06.14.09.09.06.14.09.1.06.14.09.09.06.14.09.09.06.14.09.09.06.14.09a1.462,1.462,0,0,0,.13.09c.04.03.08.05.12.08a1.21,1.21,0,0,0,.14.1,1.7,1.7,0,0,0,.14.1,1.21,1.21,0,0,0,.14.1,1.7,1.7,0,0,0,.14.1.709.709,0,0,0,.14.1,554405443543.668,554405443543.668,0,0,1,.26.2c.04.04.09.07.13.11a1.269,1.269,0,0,1,.13.11,1.269,1.269,0,0,1,.13.11c.04.03.08.07.13.11.03.03.06.05.08.07s.01.02.02.02c.03.03.07.06.1.09l.03.03c.03.03.07.05.1.08.01.01.02.03.04.04.03.03.06.05.09.08l.05.05a.5.5,0,0,1,.08.07c.02.02.03.04.05.05s.05.04.07.06l.06.06a.265.265,0,0,0,.06.05.463.463,0,0,0,.07.07c.02.02.04.03.06.05a.5.5,0,0,1,.07.08c.02.01.03.03.05.04.03.03.05.06.08.09.01.01.03.02.04.03l.09.09.03.03a.942.942,0,0,0,.1.1l.01.01a.6.6,0,0,0,.08.08,1.537,1.537,0,0,1,.12.13.688.688,0,0,1,.11.13,1.265,1.265,0,0,1,.11.13c.02.02.04.05.06.07s.03.04.05.06a1.265,1.265,0,0,1,.11.13c.04.04.07.09.11.13s.07.09.11.13.07.09.11.13.07.09.11.13.07.09.11.13.05.07.08.1.07.09.1.13.07.09.1.14.07.09.1.14.07.09.1.14.07.09.1.14a1.7,1.7,0,0,0,.1.14,326512280246.033,326512280246.033,0,0,1,.2.28,1.3,1.3,0,0,0,.1.15,1.3,1.3,0,0,0,.1.15c.02.03.04.07.06.1a.01.01,0,0,0,.01.01l.09.15.09.15.09.15.09.15.09.15.09.15a1.092,1.092,0,0,1,.08.15c.03.05.05.1.08.15s.05.1.08.16a.915.915,0,0,0,.07.14c.02.05.05.1.07.16a1.194,1.194,0,0,0,.08.16c.02.05.05.11.07.16s.05.11.07.16.05.11.07.16.05.11.07.16.05.11.07.16a1.22,1.22,0,0,0,.07.17,1.112,1.112,0,0,0,.07.16h0l.06.15c.02.06.04.11.06.17s.04.11.06.17.04.11.06.17.04.11.06.17.04.11.06.17.04.12.06.17a1.539,1.539,0,0,1,.05.17c.02.06.03.12.05.17,0,.01.01.02.01.03.01.05.03.1.04.15a1.211,1.211,0,0,0,.05.18c.01.06.03.12.04.18s.03.12.04.18.03.12.04.18c0,.01.01.03.01.04C389.63,348.62,389.63,348.61,389.63,348.61Z" fill="url(#linear-gradient-2)"/>
    <path id="Path_37" data-name="Path 37" d="M412.82,381.62a1.274,1.274,0,0,0-.01-.19,1.274,1.274,0,0,0-.01-.19,1.086,1.086,0,0,0-.01-.18,1.274,1.274,0,0,0-.01-.19,1.274,1.274,0,0,0-.01-.19,1.086,1.086,0,0,0-.01-.18,1.274,1.274,0,0,0-.01-.19,1.274,1.274,0,0,0-.01-.19,1.086,1.086,0,0,0-.01-.18,1.274,1.274,0,0,0-.01-.19,1.274,1.274,0,0,0-.01-.19,3181165390619.07,3181165390619.07,0,0,0-.02-.36,1.274,1.274,0,0,0-.01-.19,3181165390303.213,3181165390303.213,0,0,1-.02-.36,1.274,1.274,0,0,0-.01-.19,1.274,1.274,0,0,0-.01-.19,1.274,1.274,0,0,0-.01-.19,1.086,1.086,0,0,0-.01-.18,1.274,1.274,0,0,0-.01-.19,1.274,1.274,0,0,0-.01-.19,1.086,1.086,0,0,0-.01-.18,1.274,1.274,0,0,0-.01-.19,1.274,1.274,0,0,0-.01-.19,1.274,1.274,0,0,0-.01-.19,1.086,1.086,0,0,0-.01-.18,1.274,1.274,0,0,0-.01-.19,1.274,1.274,0,0,0-.01-.19,1.086,1.086,0,0,0-.01-.18,1.274,1.274,0,0,0-.01-.19,1.274,1.274,0,0,0-.01-.19,1.086,1.086,0,0,0-.01-.18,1.274,1.274,0,0,0-.01-.19,1.274,1.274,0,0,0-.01-.19,1.086,1.086,0,0,0-.01-.18,1.274,1.274,0,0,0-.01-.19,1.086,1.086,0,0,0-.01-.18,1.274,1.274,0,0,0-.01-.19,1.274,1.274,0,0,0-.01-.19,1.274,1.274,0,0,0-.01-.19,1.274,1.274,0,0,0-.01-.19,1.086,1.086,0,0,0-.01-.18,1.274,1.274,0,0,0-.01-.19,1.274,1.274,0,0,0-.01-.19,1.086,1.086,0,0,0-.01-.18,1.274,1.274,0,0,0-.01-.19,1.086,1.086,0,0,0-.01-.18,1.274,1.274,0,0,0-.01-.19,1.274,1.274,0,0,0-.01-.19,1.086,1.086,0,0,0-.01-.18,1.274,1.274,0,0,0-.01-.19,1.274,1.274,0,0,0-.01-.19,1.274,1.274,0,0,0-.01-.19,1.086,1.086,0,0,0-.01-.18,1.274,1.274,0,0,0-.01-.19,1.274,1.274,0,0,0-.01-.19,1.274,1.274,0,0,0-.01-.19,1.086,1.086,0,0,0-.01-.18,1.274,1.274,0,0,0-.01-.19,1.274,1.274,0,0,0-.01-.19,1.086,1.086,0,0,0-.01-.18,1.274,1.274,0,0,0-.01-.19,1.274,1.274,0,0,0-.01-.19,1.086,1.086,0,0,0-.01-.18,1.274,1.274,0,0,0-.01-.19,1.274,1.274,0,0,0-.01-.19,1.086,1.086,0,0,0-.01-.18,1.274,1.274,0,0,0-.01-.19,1.274,1.274,0,0,0-.01-.19,1.274,1.274,0,0,0-.01-.19,1.086,1.086,0,0,0-.01-.18,1.274,1.274,0,0,0-.01-.19,1.274,1.274,0,0,0-.01-.19,1.086,1.086,0,0,0-.01-.18,1.274,1.274,0,0,0-.01-.19,1.274,1.274,0,0,0-.01-.19,1.274,1.274,0,0,0-.01-.19,1.086,1.086,0,0,0-.01-.18,1.274,1.274,0,0,0-.01-.19,1.086,1.086,0,0,0-.01-.18,1.274,1.274,0,0,0-.01-.19,1.274,1.274,0,0,0-.01-.19,1.086,1.086,0,0,0-.01-.18,1.274,1.274,0,0,0-.01-.19,1.274,1.274,0,0,0-.01-.19,1.274,1.274,0,0,0-.01-.19,1.274,1.274,0,0,0-.01-.19,1.086,1.086,0,0,0-.01-.18,1.274,1.274,0,0,0-.01-.19,1.274,1.274,0,0,0-.01-.19,1.086,1.086,0,0,0-.01-.18,1.274,1.274,0,0,0-.01-.19,1.086,1.086,0,0,0-.01-.18,1.274,1.274,0,0,0-.01-.19,1.274,1.274,0,0,0-.01-.19,1.086,1.086,0,0,0-.01-.18,1.274,1.274,0,0,0-.01-.19,1.274,1.274,0,0,0-.01-.19,1.086,1.086,0,0,0-.01-.18,1.274,1.274,0,0,0-.01-.19,1.086,1.086,0,0,0-.01-.18,1.274,1.274,0,0,0-.01-.19,1.086,1.086,0,0,0-.01-.18,1.274,1.274,0,0,0-.01-.19,1.274,1.274,0,0,0-.01-.19,1.086,1.086,0,0,0-.01-.18,1.274,1.274,0,0,0-.01-.19,1.274,1.274,0,0,0-.01-.19,1.086,1.086,0,0,0-.01-.18,1.274,1.274,0,0,0-.01-.19,1.274,1.274,0,0,0-.01-.19,1.274,1.274,0,0,0-.01-.19,1.086,1.086,0,0,0-.01-.18,1.274,1.274,0,0,0-.01-.19,1.274,1.274,0,0,0-.01-.19,1.086,1.086,0,0,0-.01-.18,1.274,1.274,0,0,0-.01-.19,1.274,1.274,0,0,0-.01-.19,1.274,1.274,0,0,0-.01-.19,1.086,1.086,0,0,0-.01-.18,1.274,1.274,0,0,0-.01-.19,1.274,1.274,0,0,0-.01-.19,1.086,1.086,0,0,0-.01-.18,1.274,1.274,0,0,0-.01-.19,1.274,1.274,0,0,0-.01-.19,1.086,1.086,0,0,0-.01-.18,1.274,1.274,0,0,0-.01-.19,1.274,1.274,0,0,0-.01-.19,1.086,1.086,0,0,0-.01-.18,1.274,1.274,0,0,0-.01-.19,1.274,1.274,0,0,0-.01-.19,1.274,1.274,0,0,0-.01-.19,1.086,1.086,0,0,0-.01-.18,1.274,1.274,0,0,0-.01-.19,1.274,1.274,0,0,0-.01-.19,1.086,1.086,0,0,0-.01-.18,1.274,1.274,0,0,0-.01-.19,1.274,1.274,0,0,0-.01-.19,1.086,1.086,0,0,0-.01-.18,1.274,1.274,0,0,0-.01-.19,1.086,1.086,0,0,0-.01-.18,1.274,1.274,0,0,0-.01-.19,1.274,1.274,0,0,0-.01-.19,1.274,1.274,0,0,0-.01-.19,1.274,1.274,0,0,0-.01-.19,1.274,1.274,0,0,0-.01-.19,1.086,1.086,0,0,0-.01-.18,1.274,1.274,0,0,0-.01-.19,1.086,1.086,0,0,0-.01-.18,1.274,1.274,0,0,0-.01-.19,1.274,1.274,0,0,0-.01-.19,1.086,1.086,0,0,0-.01-.18v-.6a1.769,1.769,0,0,0-.01-.23,1.769,1.769,0,0,0-.01-.23,1.769,1.769,0,0,0-.01-.23c0-.08-.01-.15-.01-.23s-.01-.15-.01-.23-.01-.15-.01-.23-.01-.15-.01-.23a1023080642530.821,1023080642530.821,0,0,1-.04-.46,1.5,1.5,0,0,0-.02-.22,1.79,1.79,0,0,0-.02-.23,10.8,10.8,0,0,0-.11-1.13c-.01-.07-.01-.15-.02-.22s-.01-.15-.02-.22-.02-.15-.03-.22-.02-.15-.03-.22-.02-.15-.03-.22-.02-.15-.03-.22-.02-.15-.03-.22-.02-.15-.03-.22-.02-.15-.03-.22-.02-.14-.03-.22a2.066,2.066,0,0,0-.04-.22c-.01-.07-.03-.14-.04-.22s-.03-.14-.04-.21a10.828,10.828,0,0,0-.21-1.11,5845756341519.879,5845756341519.879,0,0,1-.12-.63c-.02-.07-.03-.14-.05-.21s-.03-.14-.05-.21-.03-.14-.05-.21-.03-.14-.05-.21-.03-.14-.05-.21a1.6,1.6,0,0,1-.05-.21,4012621566625.188,4012621566625.188,0,0,0-.1-.42l-.06-.21c-.08-.36-.19-.72-.3-1.08-.02-.07-.04-.14-.06-.2s-.04-.13-.06-.2-.04-.14-.06-.2-.04-.13-.06-.2-.04-.13-.06-.2-.04-.13-.06-.2a1394892629946.164,1394892629946.164,0,0,1-.14-.4c-.02-.07-.05-.13-.07-.2s-.05-.13-.07-.2-.05-.13-.07-.2-.05-.13-.07-.19-.05-.13-.07-.19c-.12-.35-.25-.7-.4-1.04-.03-.06-.05-.13-.08-.19s-.05-.13-.08-.19-.05-.13-.08-.19-.05-.13-.08-.19-.05-.13-.08-.19-.05-.13-.08-.19-.05-.13-.08-.19a1.083,1.083,0,0,1-.08-.19,1.083,1.083,0,0,1-.08-.19l-.09-.18c-.03-.06-.06-.12-.09-.19l-.09-.18-.09-.18-.09-.18c-.15-.34-.32-.67-.5-1l-.09-.18-.09-.18-.09-.18a474064213958.8,474064213958.8,0,0,0-.2-.36,1.616,1.616,0,0,0-.1-.18c-.03-.06-.07-.12-.1-.18s-.07-.12-.1-.17-.07-.12-.1-.17-.07-.11-.1-.17-.07-.11-.1-.17-.07-.11-.1-.17-.07-.11-.1-.17c-.18-.32-.38-.64-.59-.95-.04-.05-.07-.11-.11-.17s-.07-.11-.11-.17-.07-.11-.11-.17-.07-.11-.11-.16-.07-.11-.11-.16-.07-.11-.11-.16-.07-.11-.11-.16-.07-.11-.11-.16a502963599258.713,502963599258.713,0,0,1-.22-.32c-.04-.05-.08-.11-.12-.16s-.08-.1-.12-.16-.08-.1-.12-.16-.08-.1-.12-.16-.08-.1-.12-.16a9.521,9.521,0,0,0-.69-.88l-.12-.15-.12-.15-.12-.15-.12-.15-.12-.15a509596501915.1,509596501915.1,0,0,1-.26-.3,1.737,1.737,0,0,0-.13-.15c-.04-.05-.09-.1-.13-.15s-.09-.1-.13-.15-.09-.1-.13-.15a1.792,1.792,0,0,0-.13-.14c-.04-.05-.09-.09-.13-.14s-.09-.09-.13-.14-.09-.09-.13-.14c-.24-.28-.5-.55-.77-.81h-.01c-.04-.04-.08-.09-.12-.13l-.01-.01c-.04-.04-.07-.08-.11-.12l-.02-.02a1.143,1.143,0,0,0-.11-.11l-.03-.03a.942.942,0,0,0-.1-.1c-.01-.01-.03-.02-.04-.03l-.09-.09c-.02-.01-.03-.03-.05-.04-.03-.03-.05-.06-.08-.09s-.04-.03-.06-.05l-.08-.08a.265.265,0,0,0-.06-.05.463.463,0,0,0-.07-.07c-.02-.02-.05-.04-.07-.06l-.06-.06a.5.5,0,0,1-.08-.07c-.02-.02-.03-.04-.05-.05-.03-.03-.06-.05-.09-.08a.176.176,0,0,1-.04-.05.874.874,0,0,0-.1-.08c-.01-.01-.02-.03-.04-.04-.03-.03-.07-.06-.1-.09l-.03-.03a.524.524,0,0,1-.11-.1c-.01-.01-.01-.02-.02-.02a1.058,1.058,0,0,0-.12-.1c-.01-.01-.01-.01-.01-.02-.04-.04-.09-.07-.13-.11a.01.01,0,0,0-.01-.01,9.407,9.407,0,0,0-.84-.72l-.15-.12-.15-.12-.15-.12-.15-.12-.15-.12-.15-.12-.15-.12-.15-.12-.15-.12a935769983354.919,935769983354.919,0,0,1-.3-.22,1.429,1.429,0,0,0-.15-.11c-.05-.04-.1-.07-.15-.11s-.1-.07-.15-.11c-.01-.01-.02-.02-.03-.02l-.12-.09c-.05-.04-.1-.07-.15-.11a8.764,8.764,0,0,0-.89-.61c-.05-.03-.1-.07-.16-.11s-.1-.07-.16-.11-.1-.07-.16-.1-.1-.07-.16-.1-.1-.07-.16-.1-.11-.07-.16-.1-.11-.07-.16-.1-.11-.07-.16-.1-.11-.07-.16-.1-.11-.07-.16-.1-.11-.07-.16-.1a1969401770465.681,1969401770465.681,0,0,0-.32-.2c-.05-.03-.11-.06-.16-.09s-.11-.06-.16-.09-.11-.06-.16-.09-.11-.06-.16-.09a9.156,9.156,0,0,0-.92-.5c-.06-.03-.11-.06-.17-.09s-.11-.06-.17-.09-.11-.06-.17-.09-.11-.06-.17-.09a683948769294.09,683948769294.09,0,0,1-.51-.24,1.3,1.3,0,0,0-.17-.08c-.06-.03-.11-.05-.17-.08s-.11-.05-.17-.08-.11-.05-.17-.08-.11-.05-.17-.08-.11-.05-.17-.08-.11-.05-.17-.08-.12-.05-.17-.07-.12-.05-.17-.07c-.31-.15-.63-.28-.95-.4-.06-.02-.11-.05-.17-.07s-.11-.05-.17-.07-.12-.05-.17-.07-.12-.05-.17-.07-.12-.05-.17-.07a1.334,1.334,0,0,1-.18-.07l-.18-.06-.18-.06-.18-.06-.18-.06-.18-.06-.18-.06-.18-.06-.18-.06-.18-.06-.18-.06c-.32-.11-.64-.21-.97-.29a318709882333.4,318709882333.4,0,0,1-.36-.1,1.208,1.208,0,0,0-.18-.05c-.06-.02-.12-.03-.18-.05s-.12-.03-.18-.05-.12-.03-.18-.05-.12-.03-.18-.05a1537861542805.409,1537861542805.409,0,0,1-.9-.2,1.165,1.165,0,0,0-.18-.04c-.06-.02-.12-.02-.18-.04s-.12-.02-.18-.04c-.32-.08-.65-.14-.98-.19l-.18-.03h-.01l-.18-.03-.18-.03-.18-.03-.18-.03-.18-.03-.18-.03-.18-.03-.18-.03a32.176,32.176,0,0,0-.37-.04c-.06-.01-.12-.01-.18-.02s-.12-.01-.19-.02-.12-.01-.18-.02-.12-.01-.18-.02a8.281,8.281,0,0,0-.99-.09,1.37,1.37,0,0,1-.19-.02c-.06,0-.12-.01-.18-.01s-.12-.01-.19-.01-.12-.01-.19-.01-.12-.01-.19-.01-.12-.01-.19-.01-.12-.01-.19-.01-.12-.01-.19-.01a5814223525225.911,5814223525225.911,0,0,0-.38-.02h-.95c-.33-.01-.66-.01-.98.01h-.19a1.274,1.274,0,0,0-.19.01,1.274,1.274,0,0,0-.19.01,1.274,1.274,0,0,0-.19.01,1.274,1.274,0,0,0-.19.01c-.06,0-.12.01-.19.01s-.12.01-.19.01-.12.01-.19.01-.12.01-.19.01-.12.01-.19.01a322513682686.726,322513682686.726,0,0,1-.38.04,1.37,1.37,0,0,0-.19.02,1.37,1.37,0,0,0-.19.02c-.33.02-.65.06-.97.11-.06.01-.12.01-.19.02s-.12.01-.19.02a1.485,1.485,0,0,0-.19.03c-.06.01-.12.02-.19.03s-.12.02-.19.03-.12.02-.19.03-.12.02-.19.03l-.18.03c-.06.01-.12.02-.19.03s-.12.02-.19.03l-.18.03a1.162,1.162,0,0,0-.18.04c-.06.01-.12.03-.19.04-.32.05-.64.12-.96.2-.06.02-.12.02-.18.04a307572308553.4,307572308553.4,0,0,1-.36.08,1.165,1.165,0,0,1-.18.04c-.06.02-.12.03-.18.05s-.12.03-.18.05-.12.03-.18.05-.12.03-.18.05-.12.03-.18.05-.12.03-.18.05a318709882332.291,318709882332.291,0,0,1-.36.1l-.18.06-.18.06c-.17.04-.33.11-.49.16l.11.03a1.265,1.265,0,0,1,.18.06l.18.06.18.06.18.06.18.06.18.06.18.06.18.06.18.06.18.06a1.334,1.334,0,0,1,.18.07.865.865,0,0,1,.17.07c.06.02.12.05.17.07s.12.05.17.07.12.05.17.07.12.05.17.07c.32.12.64.25.95.4.06.03.12.05.17.07s.12.05.17.07.12.05.17.08.11.05.17.08.11.05.17.08.11.05.17.08.11.05.17.08.11.05.17.08.11.05.17.08.11.05.17.08a268215203616.164,268215203616.164,0,0,0,.34.16c.06.03.11.06.17.09s.11.06.17.09.11.06.17.09.11.06.17.09c.31.15.62.32.92.5.05.03.11.06.16.09s.11.06.16.09.11.06.16.09.11.06.16.09a1074219147505.869,1074219147505.869,0,0,0,.64.4c.05.03.11.07.16.1s.11.07.16.1.11.07.16.1.11.07.16.1.11.07.16.1.11.07.16.1.1.07.16.1.1.07.16.11.1.07.16.11c.3.19.6.39.89.61.05.04.1.07.15.11s.1.07.15.11.1.07.15.11.1.07.15.11.1.07.15.11.1.07.15.11a1.429,1.429,0,0,0,.15.11l.15.12.15.12.15.12.15.12.15.12.15.12.15.12.15.12.15.12a9.407,9.407,0,0,1,.84.72.01.01,0,0,0,.01.01c.04.04.09.07.13.11.01.01.01.01.01.02a1.058,1.058,0,0,0,.12.1c.01.01.01.02.02.02a.524.524,0,0,1,.11.1l.03.03c.03.03.07.06.1.09.01.01.02.03.04.04.03.03.07.05.1.08a.176.176,0,0,1,.04.05c.03.03.06.05.09.08s.03.04.05.05a.5.5,0,0,1,.08.07l.06.06c.02.02.05.04.07.06a.463.463,0,0,0,.07.07c.02.02.04.03.06.05l.08.08c.02.02.04.03.06.05s.05.06.08.09c.02.01.03.03.05.04l.09.09c.01.01.03.02.04.03a.942.942,0,0,0,.1.1l.03.03a1.143,1.143,0,0,0,.11.11l.02.02c.04.04.07.08.11.12l.01.01c.04.04.08.09.12.13h.01c.27.26.53.53.77.81.04.05.09.09.13.14s.09.09.13.14.09.09.13.14.09.09.13.14.09.1.13.15.09.1.13.15.09.1.13.15.09.1.13.15a1019193003888.178,1019193003888.178,0,0,1,.26.3l.12.15.12.15.12.15.12.15.12.15c.24.28.47.58.69.88.04.05.08.1.12.16s.08.1.12.16.08.1.12.16.08.1.12.16.08.11.12.16a3772226994924.829,3772226994924.829,0,0,1,.33.48c.04.05.07.11.11.16s.07.11.11.16.07.11.11.16.07.11.11.16.07.11.11.17.07.11.11.17.07.11.11.17c.21.31.41.62.59.95.03.06.07.11.1.17s.07.11.1.17.07.11.1.17.07.11.1.17.07.12.1.17.07.12.1.17.07.12.1.18.07.12.1.18a1.616,1.616,0,0,0,.1.18l.09.18.09.18.09.18c.01.03.03.05.04.08s.03.07.05.1c.18.32.35.66.5,1l.09.18.09.18.09.18c.03.06.06.12.09.19l.09.18a426939299420.859,426939299420.859,0,0,0,.16.38,1.537,1.537,0,0,1,.08.19c.03.06.05.13.08.19s.05.13.08.19.05.13.08.19.05.13.08.19.05.13.08.19.05.13.08.19c.15.34.28.69.4,1.04.02.07.05.13.07.19s.05.13.07.19.05.13.07.2.05.13.07.2.05.13.07.2.05.13.07.2a1.586,1.586,0,0,0,.07.2c.02.07.04.13.06.2s.04.13.06.2.04.13.06.2.04.13.06.2.04.13.06.2.04.14.06.2a9.548,9.548,0,0,1,.3,1.08l.06.21a1504733087581.524,1504733087581.524,0,0,0,.15.63c.02.07.03.14.05.21s.03.14.05.21.03.14.05.21.03.14.05.21.03.14.05.21a556738699149.581,556738699149.581,0,0,0,.08.42,1.557,1.557,0,0,1,.04.21,10.828,10.828,0,0,1,.21,1.11c.01.07.03.14.04.21s.03.14.04.22.03.14.04.22.02.14.03.22.02.14.03.22.02.15.03.22.02.15.03.22.02.15.03.22.02.15.03.22.02.15.03.22.02.15.03.22v.02c.01.05.02.09.03.14s.03.12.04.18a1134670706392.318,1134670706392.318,0,0,0,.08.36.06.06,0,0,0,.01.04c.01.06.02.11.03.17s.02.12.03.19.02.12.03.19.02.13.03.19.02.12.03.19.02.13.03.19.01.13.02.19.01.13.02.19.01.13.02.19a.075.075,0,0,0,.01.05c0,.06.01.13.01.19s.01.13.01.19.01.13.01.19.01.13.01.19.01.13.01.2a1.147,1.147,0,0,0,.01.19,1.339,1.339,0,0,0,.01.2,1.339,1.339,0,0,0,.01.2v29.47a13.786,13.786,0,0,0,.4,3.84,12.477,12.477,0,0,0,3.38,5.9,10.9,10.9,0,0,0,16.2-1.02A11.166,11.166,0,0,0,412.82,381.62Z" fill="url(#linear-gradient-3)"/>
    <path id="Path_38" data-name="Path 38" d="M399.52,381.77V348.88a25.483,25.483,0,0,0-22.58-24.84c-7.2-.93-12.98-.19-19.76,4.52s-18.35,17.51-9.03,35.94c7.26,14.35,23.75,14.15,23.75,14.15l-.04-23.31s-.28-6.89,2.3-7.41a7.633,7.633,0,0,0-.81-.14,8.107,8.107,0,0,0-5.63,1.59,7.683,7.683,0,0,0-1.2,1.09,8.3,8.3,0,0,0-2.07,5.24v13.92h0c-.02-.01-.03-.01-.05-.02-.05-.02-.1-.05-.15-.07s-.1-.05-.15-.07-.09-.05-.13-.07-.09-.05-.14-.08-.1-.05-.14-.08-.1-.05-.14-.08-.1-.06-.14-.08-.09-.06-.14-.09-.09-.06-.14-.09-.09-.06-.14-.09-.09-.06-.14-.09c-.03-.02-.07-.05-.1-.07s-.09-.06-.13-.09a554405443541.089,554405443541.089,0,0,0-.26-.2l-.13-.1-.13-.1-.13-.1-.13-.1-.13-.1c-.03-.02-.05-.05-.08-.07h0a1.065,1.065,0,0,0-.11-.09l-.03-.03a.874.874,0,0,0-.1-.08c-.01-.01-.02-.03-.04-.04a.551.551,0,0,0-.09-.07l-.05-.05a.554.554,0,0,0-.08-.06l-.06-.06a.423.423,0,0,0-.07-.05.463.463,0,0,0-.07-.07c-.02-.02-.04-.03-.06-.05a.27.27,0,0,1-.07-.08c-.01-.01-.03-.02-.05-.04a.6.6,0,0,0-.08-.08.138.138,0,0,0-.04-.03l-.09-.09c-.01-.01-.02-.01-.03-.02l-.06-.06c-.04-.04-.07-.08-.11-.12a1.2,1.2,0,0,1-.11-.12c-.04-.04-.07-.08-.11-.12s-.07-.08-.11-.12-.07-.08-.11-.12-.07-.08-.11-.12a1.489,1.489,0,0,1-.11-.13,1.489,1.489,0,0,1-.11-.13c-.04-.04-.07-.09-.11-.13-.02-.03-.05-.06-.07-.09a1.061,1.061,0,0,0-.09-.11c-.03-.04-.07-.09-.1-.13s-.07-.09-.1-.13-.05-.07-.07-.1a.138.138,0,0,1-.03-.04c-.03-.04-.07-.09-.1-.13a761861987347.735,761861987347.735,0,0,1-.2-.28,1.215,1.215,0,0,0-.1-.14c-.03-.05-.06-.09-.09-.14s-.06-.09-.09-.14c-.02-.03-.04-.07-.06-.1-.03-.05-.06-.09-.08-.13s-.06-.09-.09-.14-.06-.1-.09-.14-.06-.1-.09-.14-.06-.1-.09-.14-.06-.1-.08-.14-.05-.1-.08-.15-.05-.1-.08-.15-.05-.1-.08-.15-.05-.1-.08-.15l-.06-.12c-.02-.04-.05-.09-.07-.13s-.05-.1-.07-.15-.05-.1-.07-.15-.05-.1-.07-.15-.05-.1-.07-.15-.05-.1-.07-.15-.05-.1-.07-.15a1.008,1.008,0,0,0-.07-.15,1.008,1.008,0,0,0-.07-.15,1.112,1.112,0,0,0-.07-.16c-.02-.05-.04-.1-.07-.16-.02-.04-.03-.08-.05-.12l-.06-.15c-.02-.05-.04-.11-.06-.16s-.04-.11-.06-.16-.04-.11-.06-.16-.04-.11-.06-.16-.04-.11-.06-.16a809204564824.121,809204564824.121,0,0,1-.1-.32c-.02-.05-.03-.11-.05-.16s-.03-.11-.05-.16-.03-.11-.05-.16a.646.646,0,0,0-.04-.13c-.01-.05-.03-.11-.04-.16a1.1,1.1,0,0,0-.05-.17c-.01-.06-.03-.11-.04-.17s-.03-.11-.04-.17-.03-.11-.04-.17-.03-.11-.04-.17-.03-.11-.04-.17a360307016984.36,360307016984.36,0,0,1-.08-.34,540460525490.445,540460525490.445,0,0,1-.08-.34c-.01-.05-.02-.09-.03-.14s-.02-.11-.03-.16-.02-.11-.03-.17-.02-.11-.03-.17-.02-.11-.03-.17-.02-.11-.03-.17-.02-.11-.03-.17a.984.984,0,0,1-.02-.17c-.01-.06-.01-.11-.02-.17s-.01-.11-.02-.17-.01-.11-.02-.17-.01-.11-.02-.17a.708.708,0,0,1-.01-.14c0-.05-.01-.11-.01-.16s-.01-.12-.01-.17-.01-.11-.01-.17-.01-.12-.01-.17-.01-.12-.01-.17-.01-.12-.01-.17-.01-.12-.01-.17a.914.914,0,0,0-.01-.17.914.914,0,0,0-.01-.17.914.914,0,0,0-.01-.17v-.98a.914.914,0,0,1,.01-.17.914.914,0,0,1,.01-.17c0-.06.01-.12.01-.17s.01-.12.01-.17.01-.12.01-.17.01-.12.01-.17.01-.12.01-.17.01-.08.01-.13.01-.11.02-.17.01-.12.02-.17.01-.11.02-.17.01-.11.02-.17.01-.12.02-.17a.984.984,0,0,0,.02-.17,1.112,1.112,0,0,0,.02-.17c.01-.06.02-.11.03-.17v-.03c-.01,0-.01-.01-.02-.01h0a.292.292,0,0,0,.02-.09c.01-.04.02-.08.03-.13,0-.03.01-.06.01-.09l.03-.15c.01-.04.01-.09.02-.13.01-.06.02-.11.03-.17a540460525490.5,540460525490.5,0,0,1,.08-.34c.01-.06.03-.11.04-.17s.03-.11.04-.17.03-.11.04-.17.03-.11.04-.17.03-.11.04-.17.03-.11.04-.17.03-.1.04-.16c.01-.04.02-.07.03-.11.02-.06.03-.11.05-.17s.03-.11.05-.17.03-.11.05-.17a282251320835.582,282251320835.582,0,0,1,.1-.34c.02-.06.04-.11.06-.17s.04-.11.06-.16.04-.11.06-.16.04-.11.06-.16a1.21,1.21,0,0,0,.05-.14.359.359,0,0,0,.04-.11,665570345650.1,665570345650.1,0,0,0,.14-.32c.02-.05.05-.11.07-.16s.05-.11.07-.16.05-.11.07-.16.05-.11.07-.16.05-.11.07-.16.05-.11.07-.16.05-.1.07-.16c.01-.03.03-.05.04-.08.03-.05.05-.1.08-.15s.05-.1.08-.15a.8.8,0,0,0,.08-.16,1.092,1.092,0,0,0,.08-.15l.09-.15.09-.15.09-.15.09-.15.09-.15a.35.35,0,0,0,.05-.08c.03-.04.05-.09.08-.13a1.3,1.3,0,0,1,.1-.15c.03-.05.07-.1.1-.15s.07-.1.1-.15.07-.1.1-.15a630506472211.755,630506472211.755,0,0,1,.2-.28c.03-.05.07-.09.1-.14s.07-.09.1-.14.07-.09.1-.14c.01-.01.02-.03.03-.04l.01-.01.09-.12c.01-.01.02-.02.02-.03.03-.04.05-.07.08-.11l.03-.03c.03-.03.05-.07.08-.1.01-.02.03-.03.04-.04a.551.551,0,0,0,.07-.09l.05-.05c.02-.03.04-.05.06-.08l.06-.06c.02-.02.04-.05.06-.07l.07-.07c.02-.02.04-.05.06-.07l.08-.08c.02-.02.03-.04.05-.06l.09-.09a.175.175,0,0,1,.04-.05.942.942,0,0,1,.1-.1c.01-.01.02-.03.03-.04l.11-.11.01-.01a.942.942,0,0,1,.1-.1l.13-.13.13-.13.13-.13.13-.13a1.592,1.592,0,0,0,.13-.13.9.9,0,0,1,.1-.09c.01-.01.03-.02.04-.04.04-.04.09-.08.13-.12s.09-.08.14-.12a1.058,1.058,0,0,1,.12-.1.646.646,0,0,0,.09-.08,1.34,1.34,0,0,1,.14-.11,1.34,1.34,0,0,1,.14-.11l.14-.11.14-.11.14-.11.14-.11a1.72,1.72,0,0,0,.14-.11c.05-.04.1-.07.14-.1.02-.02.05-.03.07-.05a1.466,1.466,0,0,0,.13-.09.71.71,0,0,0,.14-.1l.15-.09.15-.09.15-.09.15-.09.15-.09.15-.09c.05-.03.09-.05.14-.08a.209.209,0,0,0,.06-.04,562770670702.228,562770670702.228,0,0,1,.3-.16,13506496096833.107,13506496096833.107,0,0,0,.3-.16c.05-.02.1-.05.15-.07s.1-.05.15-.07.1-.05.15-.07.1-.05.15-.07l.06-.03c.05-.02.09-.04.14-.06l.15-.06.15-.06c.05-.02.1-.04.16-.06s.1-.04.16-.06.1-.04.16-.06.1-.04.16-.06.1-.04.16-.06.1-.03.16-.05c.01,0,.02-.01.04-.01a1.429,1.429,0,0,0,.16-.05.986.986,0,0,0,.16-.05c.05-.01.1-.03.16-.04s.11-.03.16-.04.11-.03.16-.04.11-.03.16-.04.11-.03.16-.04a948219205275.63,948219205275.63,0,0,1,.32-.08.037.037,0,0,0,.03-.01l.16-.03.16-.03.16-.03.16-.03.16-.03a.874.874,0,0,1,.16-.02c.05-.01.11-.01.16-.02s.11-.01.16-.02.11-.01.16-.02h.04a.773.773,0,0,0,.15-.02c.05,0,.11-.01.16-.01s.11-.01.16-.01.11-.01.16-.01.11-.01.16-.01.11-.01.16-.01a7535899550089.969,7535899550089.969,0,0,1,.32-.02.86.86,0,0,0,.16-.01h.82a.86.86,0,0,1,.16.01c.05,0,.11.01.16.01s.11.01.16.01.11.01.16.01.11.01.16.01.11.01.16.01h.03a.756.756,0,0,0,.15.01c.05.01.11.01.16.02s.11.01.16.02.11.01.16.02.11.01.16.02a372163501259.241,372163501259.241,0,0,1,.32.04l.16.03.16.03.16.03.16.03h.02l.15.03a739610980159.966,739610980159.966,0,0,1,.48.12c.05.01.11.03.16.04s.11.03.16.04.11.03.16.04.11.03.16.04.11.03.16.04.11.03.16.04.11.03.16.04.09.03.14.04c.01,0,.01,0,.02.01.05.02.1.03.16.05s.11.03.16.05.1.03.16.05a.749.749,0,0,0,.16.05c.05.02.1.04.16.06s.1.04.16.06.1.04.16.06.1.04.16.06.1.04.16.06l.15.06c.05.02.1.04.16.06s.09.04.14.06a.01.01,0,0,1,.01.01,271324051107.378,271324051107.378,0,0,1,.3.14c.05.02.1.05.15.07s.1.05.15.07.1.05.15.07.1.05.15.07.1.05.15.07.1.05.15.07a5064936035829.851,5064936035829.851,0,0,0,.45.24c.05.02.09.05.14.07s.1.05.14.08a1.092,1.092,0,0,0,.15.08l.15.09c.05.03.1.06.14.09s.1.06.14.09.1.06.14.09.09.06.14.09.1.06.14.09.09.06.14.09.09.06.14.09.09.06.14.09a1.462,1.462,0,0,0,.13.09c.04.03.08.05.12.08a1.21,1.21,0,0,0,.14.1,1.7,1.7,0,0,0,.14.1c.05.03.09.07.14.1a1.7,1.7,0,0,0,.14.1.709.709,0,0,0,.14.1,298526008037.5,298526008037.5,0,0,0,.26.2c.04.04.09.07.13.11a1.269,1.269,0,0,1,.13.11c.04.04.09.07.13.11s.08.07.13.11c.03.03.06.05.08.07s.01.02.02.02c.03.03.07.06.1.09l.03.03c.03.03.07.05.1.08.01.01.02.03.04.04.03.03.06.05.09.08l.05.05a.5.5,0,0,1,.08.07c.02.02.03.04.05.05s.05.04.07.06l.06.06a.265.265,0,0,0,.06.05.463.463,0,0,0,.07.07c.02.02.04.03.06.05a.5.5,0,0,1,.07.08c.02.01.03.03.05.04.03.03.05.06.08.09.01.01.03.02.04.03l.09.09.03.03a.942.942,0,0,0,.1.1l.01.01a.6.6,0,0,0,.08.08,1.537,1.537,0,0,1,.12.13.688.688,0,0,1,.11.13,1.265,1.265,0,0,1,.11.13c.02.02.04.05.06.07s.03.04.05.06a1.265,1.265,0,0,1,.11.13c.04.04.07.09.11.13s.07.09.11.13.07.09.11.13.07.09.11.13.07.09.11.13.05.07.08.1.07.09.1.13.07.09.1.14.07.09.1.14.07.09.1.14.07.09.1.14a1.7,1.7,0,0,0,.1.14,326512280246.272,326512280246.272,0,0,1,.2.28,1145316327960.716,1145316327960.716,0,0,1,.2.3c.02.03.04.07.06.1a.01.01,0,0,0,.01.01l.09.15.09.15.09.15.09.15.09.15.09.15a1.092,1.092,0,0,1,.08.15c.03.05.05.1.08.15s.05.1.08.16a.915.915,0,0,0,.07.14c.02.05.05.1.07.16a1.194,1.194,0,0,0,.08.16c.02.05.05.11.07.16s.05.11.07.16.05.11.07.16.05.11.07.16.05.11.07.16.04.11.07.17a1.112,1.112,0,0,0,.07.16h0l.06.15c.02.06.04.11.06.17s.04.11.06.17.04.11.06.17.04.11.06.17.04.11.06.17.04.11.06.17.03.12.05.17.03.12.05.17c0,.01.01.02.01.03.01.05.03.1.04.15a1.211,1.211,0,0,0,.05.18c.01.06.03.12.04.18s.03.12.04.18.03.12.04.18c0,.01.01.03.01.04.01.07.01.14.02.21s.01.15.02.22c.05.37.09.75.11,1.13,0,.08.02.15.02.23a1.639,1.639,0,0,0,.02.22,511540321269.971,511540321269.971,0,0,1,.04.46c0,.08.01.15.01.23s.01.15.01.23.01.15.01.23.01.15.01.23.01.15.01.23a1.769,1.769,0,0,0,.01.23,1.769,1.769,0,0,0,.01.23v.6a1.086,1.086,0,0,0,.01.18,1.274,1.274,0,0,0,.01.19,1.274,1.274,0,0,0,.01.19,1.086,1.086,0,0,0,.01.18,1.274,1.274,0,0,0,.01.19,1.086,1.086,0,0,0,.01.18,1.274,1.274,0,0,0,.01.19,1.274,1.274,0,0,0,.01.19,1.274,1.274,0,0,0,.01.19,1.274,1.274,0,0,0,.01.19,1.274,1.274,0,0,0,.01.19,1.086,1.086,0,0,0,.01.18,1.274,1.274,0,0,0,.01.19,1.086,1.086,0,0,0,.01.18,1.274,1.274,0,0,0,.01.19,1.274,1.274,0,0,0,.01.19,1.086,1.086,0,0,0,.01.18,1.274,1.274,0,0,0,.01.19,1.274,1.274,0,0,0,.01.19,1.086,1.086,0,0,0,.01.18,1.274,1.274,0,0,0,.01.19,1.274,1.274,0,0,0,.01.19,1.274,1.274,0,0,0,.01.19,1.086,1.086,0,0,0,.01.18,1.274,1.274,0,0,0,.01.19,1.274,1.274,0,0,0,.01.19v23.97a13.428,13.428,0,0,0,.41,3.84,12.477,12.477,0,0,0,3.38,5.9,11.41,11.41,0,0,0,2.12,1.61C399.52,390.12,399.52,381.77,399.52,381.77Zm-28.02-3.21a1.415,1.415,0,0,1,.2.04c-.07-.01-.13-.03-.2-.04s-.13-.03-.2-.04A1.415,1.415,0,0,0,371.5,378.56Zm-1.04-.22c.01,0,.02.01.04.01-.02,0-.03,0-.04-.01-.07-.02-.13-.03-.2-.05C370.32,378.31,370.39,378.32,370.46,378.34Zm-.99-.28c.07.02.13.04.2.06-.07-.02-.14-.04-.2-.06s-.13-.04-.2-.06C369.34,378.02,369.4,378.04,369.47,378.06Zm-3.03-1.23c.04.02.08.04.13.06-.04-.02-.09-.04-.13-.06-.06-.03-.13-.07-.19-.1A1.143,1.143,0,0,1,366.44,376.83Zm-1.11-.62c.06.03.11.07.17.1-.06-.03-.11-.07-.17-.1a.879.879,0,0,0-.1-.06A.53.53,0,0,0,365.33,376.21Zm-2.37-1.67c.06.05.12.09.18.14-.06-.05-.12-.09-.18-.14a.874.874,0,0,0-.1-.08A.7.7,0,0,1,362.96,374.54Zm-2.07-1.93c.03.03.05.06.08.09-.02-.02-.05-.06-.08-.09l-.06-.06A.338.338,0,0,0,360.89,372.61Zm-1.38-1.55c.02.03.04.05.06.08a.556.556,0,0,0-.06-.08l-.14-.17A1.152,1.152,0,0,1,359.51,371.06Zm-1.85-2.68a.879.879,0,0,1,.06.1.879.879,0,0,0-.06-.1,1.861,1.861,0,0,0-.11-.19A1.861,1.861,0,0,1,357.66,368.38Zm-.71-1.34c.03.06.07.13.1.19a.487.487,0,0,1,.03.07.487.487,0,0,1-.03-.07,1.736,1.736,0,0,1-.1-.19,1.736,1.736,0,0,0-.1-.19A1.736,1.736,0,0,0,356.95,367.04Zm-1.45-3.64.06.21a1.66,1.66,0,0,0-.06-.21l-.06-.21Zm-.97-4.71c-.01-.07-.01-.14-.02-.21a1.25,1.25,0,0,1,.02.21,1.5,1.5,0,0,1,.02.22A1.5,1.5,0,0,0,354.53,358.69Z" opacity="0.78" fill="url(#linear-gradient-4)"/>
  </g>
</svg>
