<svg xmlns="http://www.w3.org/2000/svg" xmlns:xlink="http://www.w3.org/1999/xlink" width="84.355" height="81.476" viewBox="0 0 84.355 81.476">
  <defs>
    <linearGradient id="linear-gradient" y1="0.5" x2="1" y2="0.5" gradientUnits="objectBoundingBox">
      <stop offset="0" stop-color="#5b57a5"/>
      <stop offset="0.5" stop-color="#2e3092"/>
      <stop offset="1" stop-color="#474374"/>
    </linearGradient>
  </defs>
  <path id="customer-2" d="M622.729,297.97a13.764,13.764,0,0,0-.532-8.016,20.81,20.81,0,0,0-1.283-2.495,14.412,14.412,0,0,0-6.3.125c-.2.055-.407.109-.61.172-.2.039-.4.078-.594.133a13.823,13.823,0,0,0-6.194,3.378,12.335,12.335,0,0,0-2.792,8.689,15.71,15.71,0,0,1-.633-3.816,18.722,18.722,0,0,0-.821,13.811c.852,2.6,4.168,11.754,4.888,15.453-3.277-10.456-9.948-15.524-21.655-16.791-7.344-.8-15.532,2.51-20.592,7.117a19.1,19.1,0,0,1,5.357-.7,19.2,19.2,0,0,0-11.1,8.141,26.591,26.591,0,0,0-2.729,8.36,17.977,17.977,0,0,1,2-2.276,19.154,19.154,0,0,0-2.354,6.866l-.023.282a25.306,25.306,0,0,0,1.509,9.854,24.97,24.97,0,0,0,3.754.884,17.815,17.815,0,0,0,11.105-2.745,18.286,18.286,0,0,1-2.9,2.635,24.575,24.575,0,0,0,2.542-.618,2.391,2.391,0,0,0,.25-.1A19.459,19.459,0,0,0,583.031,336a19.747,19.747,0,0,1-1.345,5.208,25.189,25.189,0,0,0,6.671-14.671,25.815,25.815,0,0,1,.391,5,25.467,25.467,0,0,0,1.689-8.071,18.626,18.626,0,0,0-1.134-7.875c-13.756-3.128-22.727,9.916-25.339,17.581,2.7-9.041,9.854-20.177,23.376-20.419,8.782-.156,14.257,6.632,16.713,12.81,1.517,3.824,5.717,18.339-9.33,28.279-8.7,5.756-19.833,7.813-30.219,4.035a30.8,30.8,0,0,1-18.574-18.425c-.109-.328-.219-.657-.313-.993a33.068,33.068,0,0,1,21.194-40.542c-.454.117-.915.227-1.369.36a35.761,35.761,0,1,0,44.045,47.486c3.879-9.658,1.908-18.816-1.627-27.63-2.245-5.6-4.591-15.125,7.641-24.345-3.762,3.394-10.229,10-7.422,19.3a26.858,26.858,0,0,0,5.334-.641A13.118,13.118,0,0,0,618,310.319a14.435,14.435,0,0,1-3.12.328,13.332,13.332,0,0,0,7.625-6.382,10.219,10.219,0,0,1-2.909,1.572,11.561,11.561,0,0,0,4.294-8.157c.008-.063.008-.125.016-.18-.016-.61-.055-1.228-.133-1.853A12.257,12.257,0,0,1,622.729,297.97Z" transform="translate(-539.547 -287.171)" fill="url(#linear-gradient)"/>
</svg>
